# AST/ASF file generated using VICON BodyLanguage
# -----------------------------------------------
:version 1.10
:name VICON
:units
  mass 1.0
  length 0.45
  angle deg
:documentation
   .ast/.asf automatically generated from VICON data using
   VICON BodyBuilder and BodyLanguage model FoxedUp or BRILLIANT.MOD
:root
   order TX TY TZ RX RY RZ
   axis XYZ
   position 0 0 0  
   orientation 0 0 0 
:bonedata
  begin
     id 1 
     name lhipjoint
     direction 0.661853 -0.702389 0.261917 
     length 2.64193 
     axis 0 0 0  XYZ
  end
  begin
     id 2 
     name lfemur
     direction 0.34202 -0.939693 0  
     length 7.01722  
     axis 0 0 20  XYZ
    dof rx ry rz
    limits (-160.0 20.0)
           (-70.0 70.0)
           (-60.0 70.0)
  end
  begin
     id 3 
     name ltibia
     direction 0.34202 -0.939693 0   
     length 8.25008   
     axis 0 0 20   XYZ
    dof rx
    limits (-10.0 170.0)
  end
  begin
     id 4 
     name lfoot
     direction 0.0709916 -0.195048 0.978221   
     length 2.31941   
     axis -90 7.62852e-016 20   XYZ
    dof rx rz
    limits (-45.0 90.0)
           (-70.0 20.0)
  end
  begin
     id 5 
     name ltoes
     direction 1.53586e-011 -4.22017e-011 1   
     length 1.16486   
     axis -90 7.62852e-016 20   XYZ
    dof rx
    limits (-90.0 20.0)
  end
  begin
     id 6 
     name rhipjoint
     direction -0.638185 -0.721362 0.268992   
     length 2.57244  
     axis 0 0 0  XYZ 
  end
  begin
     id 7 
     name rfemur
     direction -0.34202 -0.939693 0   
     length 7.07017   
     axis 0 0 -20   XYZ
    dof rx ry rz
    limits (-160.0 20.0)
           (-70.0 70.0)
           (-70.0 60.0)
  end
  begin
     id 8 
     name rtibia
     direction -0.34202 -0.939693 0   
     length 8.20386   
     axis 0 0 -20   XYZ
    dof rx
    limits (-10.0 170.0)
 end
 begin
     id 9 
     name rfoot
     direction -0.0822429 -0.225961 0.970658   
     length 2.32215  
     axis -90 -7.62852e-016 -20   XYZ
    dof rx rz
    limits (-45.0 90.0)
           (-20.0 70.0)
  end
  begin
     id 10 
     name rtoes
     direction -1.53597e-011 -4.21689e-011 1   
     length 1.16333   
     axis -90 -7.62852e-016 -20   XYZ
    dof rx
    limits (-90.0 20.0)
  end
  begin
     id 11 
     name lowerback
     direction -0.0131557 0.998589 -0.0514484   
     length 2.14993   
     axis 0 0 0   XYZ
    dof rx ry rz
    limits (-20.0 45.0)
           (-30.0 30.0)
           (-30.0 30.0)
  end
  begin
     id 12 
     name upperback
     direction -0.000776481 0.999993 0.00352685   
     length 2.15301   
     axis 0 0 0   XYZ
    dof rx ry rz
    limits (-20.0 45.0)
           (-30.0 30.0)
           (-30.0 30.0)
  end
  begin
     id 13 
     name thorax
     direction 0.00438186 0.999609 0.0276143   
     length 2.15424   
     axis 0 0 0   XYZ
    dof rx ry rz
    limits (-20.0 45.0)
           (-30.0 30.0)
           (-30.0 30.0)
  end
  begin
     id 14 
     name lowerneck
     direction -0.0488006 0.998094 0.0377807   
     length 1.90481   
     axis 0 0 0   XYZ
    dof rx ry rz
    limits (-20.0 45.0)
           (-30.0 30.0)
           (-30.0 30.0)
  end
  begin
     id 15 
     name upperneck
     direction 0.0443769 0.990702 -0.12861   
     length 1.91305   
     axis 0 0 0   XYZ
    dof rx ry rz
    limits (-20.0 45.0)
           (-30.0 30.0)
           (-30.0 30.0)
  end
  begin
     id 16
     name head
     direction 0.0165599 0.998647 -0.0492982  
     length 1.92369  
     axis 0 0 0   XYZ
    dof rx ry rz
    limits (-20.0 45.0)
           (-30.0 30.0)
           (-30.0 30.0)
  end
  begin
     id 17 
     name lclavicle
     direction 0.911936 0.410197 -0.0105506  
     length 3.52622  
     axis 0 0 0   XYZ
    dof ry rz
    limits (-20.0 10.0)
           (0.0 20.0)
  end
  begin
     id 18 
     name lhumerus
     direction 1 -4.48974e-011 -2.48591e-028   
     length 5.47651   
     axis 180 -30 -90   XYZ
    dof rx ry rz
    limits (-60.0 90.0)
           (-90.0 90.0)
           (-90.0 90.0)
  end
  begin
     id 19
     name lradius
     direction 1 -4.48938e-011 -4.40099e-027   
     length 3.09058   
     axis 180 -30 -90   XYZ
    dof rx
    limits (-10.0 170.0)
  end
  begin
     id 20
     name lwrist
     direction 1 -4.49042e-011 -2.99852e-027   
     length 1.54529   
     axis 1.95339e-015 90 90   XYZ
    dof ry
    limits (-180.0 0.0)
 end
  begin
     id 21 
     name lhand
     direction 1 -4.48815e-011 -5.98193e-027   
     length 0.771611   
     axis 3.82337e-015 90 90   XYZ
    dof rx rz
    limits (-90.0 90.0)
           (-45.0 45.0)
  end
  begin
     id 22 
     name lfingers
     direction 1 -4.49034e-011 -1.1993e-026   
     length 0.622093   
     axis 7.64668e-015 90 90   XYZ
    dof rx
    limits (0.0 90.0)
  end
  begin
     id 23
     name lthumb
     direction 0.707107 -6.34867e-011 0.707107   
     length 0.893204   
     axis -90 45 -1.62303e-014   XYZ
    dof rx rz
    limits (-45.0 45.0)
           (-45.0 45.0)
  end
  begin
     id 24 
     name rclavicle
     direction -0.93442 0.355634 -0.0195692   
     length 3.62463  
     axis 0 0 0   XYZ 
    dof ry rz
    limits (-10.0 20.0)
           (-20.0 0.0)
  end
  begin
     id 25 
     name rhumerus
     direction -1 -4.48957e-011 -1.19147e-027  
     length 5.14182   
     axis 180 30 90   XYZ
    dof rx ry rz
    limits (-90.0 60.0)
           (-90.0 90.0)
           (-90.0 90.0)
  end
  begin
     id 26 
     name rradius
     direction -1 -4.48952e-011 -3.81062e-027   
     length 3.35565   
     axis 180 30 90   XYZ
    dof rx
    limits (-10.0 170.0)
  end
  begin
     id 27 
     name rwrist
     direction -1 -4.48973e-011 -2.99621e-027   
     length 1.67782   
     axis 1.95339e-015 -90 -90   XYZ
    dof ry
    limits (-180.0 0.0)
  end
  begin
     id 28
     name rhand
     direction -1 -4.48895e-011 -5.98727e-027   
     length 0.801042   
     axis 3.82337e-015 -90 -90   XYZ
    dof rx rz
    limits (-90.0 90.0)
           (-45.0 45.0)
  end
  begin
     id 29
     name rfingers
     direction -1 -4.49065e-011 -1.19972e-026   
     length 0.645821   
     axis 7.64668e-015 -90 -90   XYZ
    dof rx
    limits (0.0 90.0)
  end
  begin
     id 30
     name rthumb
     direction -0.707107 -6.34957e-011 0.707107   
     length 0.927273   
     axis -90 -45 1.62303e-014   XYZ
    dof rx rz
    limits (-45.0 45.0)
           (-45.0 45.0)
  end
:hierarchy
  begin
    root lhipjoint rhipjoint lowerback
    lhipjoint lfemur
    lfemur ltibia
    ltibia lfoot
    lfoot ltoes
    rhipjoint rfemur
    rfemur rtibia
    rtibia rfoot
    rfoot rtoes
    lowerback upperback
    upperback thorax
    thorax lowerneck lclavicle rclavicle
    lowerneck upperneck
    upperneck head
    lclavicle lhumerus
    lhumerus lradius
    lradius lwrist
    lwrist lhand lthumb
    lhand lfingers
    rclavicle rhumerus
    rhumerus rradius
    rradius rwrist
    rwrist rhand rthumb
    rhand rfingers
  end

#!OML:ASF E:\Style4\Style4.ASF
:FULLY-SPECIFIED
:DEGREES
212
root 0.0206293 16.652 -2.40679 5.23498 0.274336 2.88631
lowerback 20.482 2.22942 -0.335524
upperback 10.4668 2.84875 0.806323
thorax -0.173987 1.38966 0.474692
lowerneck 6.81532 -5.20365 -5.55007
upperneck -12.2084 -7.04776 5.45742
head -4.36631 -3.57119 2.9654
rclavicle 4.77083e-014 2.38542e-015
rhumerus 19.2381 -0.464276 -72.5558
rradius 121.995
rwrist 22.2932
rhand 32.1092 -9.87259
rfingers 7.12502
rthumb 55.5925 -27.5738
lclavicle 4.77083e-014 2.38542e-015
lhumerus 22.4712 -15.5919 68.7184
lradius 123.23
lwrist -11.2262
lhand 14.9394 45.5392
lfingers 7.12502
lthumb 39.7946 70.8269
rfemur -38.9772 -2.24752 16.1688
rtibia 57.3749
rfoot -22.1819 -10.003
rtoes -11.1628
lfemur -38.2203 1.61113 -21.6045
ltibia 55.0229
lfoot -21.0422 4.36895
ltoes -16.1466
213
root 0.0257713 16.6533 -2.40244 5.28808 0.190292 2.85825
lowerback 20.4124 2.24463 -0.313669
upperback 10.4712 2.87173 0.80352
thorax -0.13346 1.40175 0.45747
lowerneck 6.64644 -5.21096 -5.51718
upperneck -11.9285 -7.05835 5.37618
head -4.25665 -3.57356 2.92204
rclavicle 1.63003e-014 7.95139e-016
rhumerus 19.3931 -0.185838 -72.5629
rradius 122.551
rwrist 22.2146
rhand 31.4446 -9.65559
rfingers 7.12502
rthumb 55.0008 -27.7937
lclavicle 1.63003e-014 7.95139e-016
lhumerus 22.5156 -15.7855 68.6053
lradius 123.893
lwrist -11.0628
lhand 15.1396 45.4238
lfingers 7.12502
lthumb 39.9831 70.655
rfemur -39.0389 -2.19204 16.1798
rtibia 57.3723
rfoot -22.1708 -9.99873
rtoes -11.3404
lfemur -38.2807 1.74806 -21.6124
ltibia 55.0693
lfoot -21.0839 4.37202
ltoes -16.259
214
root 0.0293131 16.657 -2.39863 5.33676 0.145742 2.80278
lowerback 20.3531 2.25387 -0.262961
upperback 10.4641 2.89237 0.807662
thorax -0.109611 1.41369 0.431162
lowerneck 6.63652 -5.20714 -5.48321
upperneck -11.8874 -7.05081 5.36257
head -4.24466 -3.57068 2.9107
rclavicle -3.18055e-015 1.51076e-014
rhumerus 19.4865 0.00217879 -72.5675
rradius 123.08
rwrist 22.1749
rhand 30.7252 -9.29914
rfingers 7.12502
rthumb 54.3577 -27.8924
lclavicle -3.18055e-015 1.51076e-014
lhumerus 22.6584 -15.9091 68.509
lradius 124.526
lwrist -10.8681
lhand 15.4133 45.4058
lfingers 7.12502
lthumb 40.2405 70.5589
rfemur -39.0696 -2.15473 16.2277
rtibia 57.3604
rfoot -22.1731 -9.99801
rtoes -11.485
lfemur -38.3923 1.84487 -21.5856
ltibia 55.1414
lfoot -21.0392 4.42061
ltoes -16.4775
215
root 0.0341862 16.6575 -2.39601 5.36887 0.143216 2.74785
lowerback 20.3447 2.22989 -0.183711
upperback 10.4467 2.87522 0.817815
thorax -0.120906 1.4078 0.400517
lowerneck 6.60346 -5.20766 -5.46658
upperneck -11.8458 -7.05484 5.30919
head -4.22907 -3.57022 2.88969
rclavicle -2.26615e-014 -5.56597e-015
rhumerus 19.6012 0.146657 -72.5896
rradius 123.625
rwrist 21.8894
rhand 30.5344 -9.14215
rfingers 7.12502
rthumb 54.1868 -27.8531
lclavicle -2.26615e-014 -5.56597e-015
lhumerus 22.7608 -15.9346 68.4293
lradius 125.16
lwrist -10.592
lhand 15.4342 45.5488
lfingers 7.12502
lthumb 40.2602 70.6959
rfemur -39.0988 -2.19217 16.2767
rtibia 57.3557
rfoot -22.1229 -9.97425
rtoes -11.6059
lfemur -38.4947 1.85517 -21.5421
ltibia 55.2283
lfoot -21.0367 4.41347
ltoes -16.4779
216
root 0.0390521 16.6545 -2.39187 5.41427 0.120871 2.74993
lowerback 20.3072 2.20685 -0.180963
upperback 10.4304 2.84601 0.820446
thorax -0.119637 1.3932 0.408488
lowerneck 6.54591 -5.19378 -5.52795
upperneck -11.8009 -7.04328 5.28681
head -4.20517 -3.56041 2.88887
rclavicle -1.98785e-015 1.03368e-014
rhumerus 19.693 0.372196 -72.5668
rradius 124.084
rwrist 21.8323
rhand 30.4823 -8.979
rfingers 7.12502
rthumb 54.14 -27.7219
lclavicle -1.98785e-015 1.03368e-014
lhumerus 22.7065 -15.8582 68.3866
lradius 125.781
lwrist -10.3031
lhand 15.2041 45.5612
lfingers 7.12502
lthumb 40.0437 70.7741
rfemur -39.1709 -2.23031 16.2663
rtibia 57.3773
rfoot -22.0988 -9.9508
rtoes -11.6636
lfemur -38.5788 1.87079 -21.5702
ltibia 55.3106
lfoot -21.1066 4.4994
ltoes -17.0269
217
root 0.0436139 16.6538 -2.38783 5.41823 0.0837738 2.78394
lowerback 20.3134 2.19286 -0.221243
upperback 10.4145 2.82061 0.810147
thorax -0.141107 1.3792 0.424684
lowerneck 6.4749 -5.18129 -5.52193
upperneck -11.7407 -7.0309 5.21794
head -4.17876 -3.55034 2.86236
rclavicle -1.15295e-014 -6.36111e-015
rhumerus 19.7654 0.65685 -72.5224
rradius 124.447
rwrist 22.1669
rhand 30.2655 -8.9109
rfingers 7.12502
rthumb 53.9455 -27.7857
lclavicle -1.15295e-014 -6.36111e-015
lhumerus 22.6466 -15.6661 68.3457
lradius 126.333
lwrist -10.1548
lhand 15.0467 45.4029
lfingers 7.12502
lthumb 39.8956 70.6603
rfemur -39.1832 -2.24764 16.2144
rtibia 57.4018
rfoot -22.1312 -9.87345
rtoes -11.503
lfemur -38.6358 1.87699 -21.6246
ltibia 55.3891
lfoot -21.1359 4.59457
ltoes -17.3057
218
root 0.0487564 16.6545 -2.38395 5.43027 0.0475387 2.81078
lowerback 20.3044 2.18195 -0.236311
upperback 10.3888 2.80324 0.78484
thorax -0.163744 1.37061 0.409507
lowerneck 6.40662 -5.17787 -5.48293
upperneck -11.6997 -7.02364 5.17811
head -4.15831 -3.54585 2.84031
rclavicle -2.06736e-014 2.38542e-015
rhumerus 19.754 0.927044 -72.5128
rradius 124.879
rwrist 22.3482
rhand 29.9169 -8.96338
rfingers 7.12502
rthumb 53.6322 -28.0471
lclavicle -2.06736e-014 2.38542e-015
lhumerus 22.6405 -15.6113 68.2228
lradius 126.859
lwrist -9.97696
lhand 15.2326 45.5194
lfingers 7.12502
lthumb 40.0706 70.7241
rfemur -39.1967 -2.254 16.17
rtibia 57.4299
rfoot -22.1561 -9.86739
rtoes -11.5348
lfemur -38.6901 1.89486 -21.6762
ltibia 55.4601
lfoot -21.1163 4.66864
ltoes -17.4385
219
root 0.0535521 16.6524 -2.3795 5.4635 0.0217403 2.80289
lowerback 20.2753 2.16892 -0.179365
upperback 10.3553 2.79524 0.74403
thorax -0.180687 1.36987 0.336028
lowerneck 6.48501 -5.14101 -5.55055
upperneck -11.8621 -6.96487 5.33498
head -4.21521 -3.52254 2.9035
rclavicle 2.98177e-014 -1.11319e-014
rhumerus 19.6439 1.13509 -72.5217
rradius 125.373
rwrist 22.306
rhand 29.7406 -9.07436
rfingers 7.12502
rthumb 53.4736 -28.2622
lclavicle 2.98177e-014 -1.11319e-014
lhumerus 22.6277 -15.6913 68.0401
lradius 127.368
lwrist -9.69956
lhand 15.5002 45.9146
lfingers 7.12502
lthumb 40.3223 71.0426
rfemur -39.2361 -2.26092 16.161
rtibia 57.4635
rfoot -22.1854 -9.83904
rtoes -11.6872
lfemur -38.7472 1.927 -21.6914
ltibia 55.5334
lfoot -21.181 4.66828
ltoes -17.4846
